<svg xmlns="http://www.w3.org/2000/svg" viewBox="0 0 24 24" width="24" height="24">
  <path fill="#EA4335" d="M24 5.457v13.909c0 .904-.732 1.636-1.636 1.636h-3.819V11.73L12 16.64l-6.545-4.91v9.273H1.636A1.636 1.636 0 0 1 0 19.366V5.457c0-2.023 2.309-3.178 3.927-1.964L5.455 4.64 12 9.548l6.545-4.91 1.528-1.145C21.69 2.28 24 3.434 24 5.457z"/>
  <path fill="#FBBC04" d="M5.455 4.64L1.636 1.636A1.636 1.636 0 0 0 0 3.273v2.184l5.455 4.09V4.64z"/>
  <path fill="#34A853" d="M24 5.457V3.273a1.636 1.636 0 0 0-1.636-1.636L18.545 4.64v4.909L24 5.457z"/>
  <path fill="#4285F4" d="M18.545 4.64v6.09L12 16.64V9.548l6.545-4.91z"/>
  <path fill="#C5221F" d="M5.455 4.64v6.09L12 16.64V9.548L5.455 4.64z"/>
</svg>
