<svg xmlns="http://www.w3.org/2000/svg" viewBox="0 0 24 24" width="24" height="24">
  <path fill="#0078D4" d="M24 7.387v10.478c0 .23-.08.424-.238.583a.792.792 0 0 1-.584.238h-8.322v-6.33l1.478 1.06a.39.39 0 0 0 .478-.012l5.044-3.58v-.014a.476.476 0 0 0 .155-.169.5.5 0 0 0 .051-.195.462.462 0 0 0-.062-.215.376.376 0 0 0-.166-.156l-.478-.28-5.022-2.955a.396.396 0 0 0-.478.012L14.856 7v-.813c0-.23.08-.424.238-.583a.792.792 0 0 1 .584-.238h7.5c.23 0 .424.08.583.238a.792.792 0 0 1 .239.583z"/>
  <path fill="#0078D4" d="M14.856 18.686v-6.33l-1.478 1.06a.39.39 0 0 1-.478-.012L7.5 9.644l-.656.465c-.087.062-.178.093-.272.093a.39.39 0 0 1-.272-.104.35.35 0 0 1-.112-.265c0-.1.03-.187.09-.262L7.5 8.31V5.366H.822a.792.792 0 0 0-.584.238.792.792 0 0 0-.238.583v10.478c0 .23.08.424.238.583a.792.792 0 0 0 .584.238h13.212c.23 0 .424-.08.583-.238a.792.792 0 0 0 .239-.562z"/>
  <path fill="#0364B8" d="M0 6.188v10.478c0 .23.08.424.238.583a.792.792 0 0 0 .584.238h6.856V5.366H.822a.792.792 0 0 0-.584.238.792.792 0 0 0-.238.584z"/>
  <ellipse fill="#0078D4" cx="4.5" cy="11.5" rx="3" ry="3.5"/>
  <ellipse fill="#fff" cx="4.5" cy="11.5" rx="2" ry="2.5"/>
</svg>
